<?xml version="1.0" standalone="no"?>
<!DOCTYPE svg PUBLIC "-//W3C//DTD SVG 20010904//EN"
 "http://www.w3.org/TR/2001/REC-SVG-20010904/DTD/svg10.dtd">
<svg version="1.0" xmlns="http://www.w3.org/2000/svg"
 width="9827.000000pt" height="3021.000000pt" viewBox="0 0 9827.000000 3021.000000"
 preserveAspectRatio="xMidYMid meet">

<g transform="translate(0.000000,3021.000000) scale(0.100000,-0.100000)"
fill="#000000" stroke="none">
<path d="M75635 24899 c-475 -40 -941 -165 -1397 -374 -614 -282 -1107 -697
-1505 -1265 -350 -500 -553 -1064 -628 -1750 -29 -268 -35 -551 -35 -1777 l0
-1243 -750 0 -750 0 0 -1380 0 -1380 750 0 750 0 0 -3165 0 -3165 1675 0 1675
0 0 3165 0 3165 1125 0 1125 0 0 315 c0 173 3 315 8 315 4 0 102 -229 218
-508 116 -279 770 -1844 1453 -3478 l1241 -2972 -19 -43 c-10 -24 -399 -876
-864 -1894 -464 -1017 -928 -2033 -1031 -2257 -102 -225 -186 -410 -186 -413
0 -3 755 -5 1679 -5 l1679 0 70 153 c557 1216 6172 13540 6172 13548 0 6 -7 8
-16 5 -9 -3 -749 -6 -1644 -6 l-1629 0 -18 -42 c-11 -24 -563 -1412 -1228
-3085 -666 -1674 -1213 -3043 -1217 -3043 -3 0 -13 21 -22 48 -9 26 -501 1414
-1093 3084 l-1078 3038 -2360 2 -2360 3 0 1165 c1 1195 2 1256 41 1490 55 325
210 605 416 750 77 54 204 111 316 142 65 18 104 22 252 21 157 0 185 -2 273
-26 54 -14 130 -42 170 -61 89 -43 226 -146 325 -243 41 -41 75 -73 77 -71 1
2 288 554 638 1227 614 1181 636 1225 619 1244 -9 11 -73 56 -142 102 -296
195 -712 408 -940 482 -399 131 -897 195 -1490 192 -135 -1 -290 -6 -345 -10z"/>
<path d="M62790 20913 l0 -3738 -34 77 c-70 161 -162 286 -340 464 -297 296
-648 524 -1113 723 -388 165 -707 247 -1163 298 -219 24 -791 24 -1008 0 -896
-101 -1598 -409 -2254 -987 -688 -606 -1186 -1450 -1423 -2413 -116 -472 -159
-852 -159 -1392 0 -343 8 -498 44 -780 137 -1074 593 -2065 1280 -2779 579
-602 1294 -1001 2070 -1156 343 -69 519 -85 925 -85 422 0 610 21 947 106 415
104 873 312 1253 570 406 275 751 622 952 957 l58 97 3 -737 2 -738 1665 0
1665 0 0 7625 0 7625 -1685 0 -1685 0 0 -3737z m-1780 -4818 c912 -141 1589
-813 1751 -1740 27 -153 37 -500 20 -666 -17 -165 -56 -345 -106 -498 -221
-661 -751 -1163 -1413 -1336 -314 -82 -706 -97 -1010 -39 -514 98 -957 380
-1257 799 -271 379 -405 819 -405 1330 0 374 69 698 210 993 114 237 221 393
389 566 181 185 337 299 566 411 208 102 437 168 680 194 123 13 447 5 575
-14z"/>
<path d="M68400 24170 c-525 -64 -979 -333 -1307 -774 -188 -252 -291 -487
-350 -801 -23 -124 -28 -436 -9 -580 63 -477 289 -882 676 -1209 339 -286 733
-426 1200 -427 324 0 565 51 828 176 472 226 881 692 1017 1161 62 215 69 269
69 549 1 245 -1 267 -26 386 -77 354 -247 668 -506 933 -306 313 -653 500
-1057 571 -107 19 -427 28 -535 15z"/>
<path d="M22618 20363 l-3 -1868 -772 -3 -773 -2 0 -1380 0 -1380 775 0 775 0
0 -1814 c0 -1142 4 -1871 10 -1968 63 -932 361 -1611 910 -2070 453 -381 989
-611 1630 -702 376 -54 1017 -45 1491 19 430 59 968 197 1359 350 229 90 584
258 610 290 8 9 -135 316 -523 1121 -552 1145 -610 1266 -614 1273 -2 3 -13
-5 -26 -16 -39 -36 -229 -159 -304 -196 -246 -124 -608 -124 -820 0 -189 110
-308 364 -374 798 -10 60 -14 443 -16 1498 l-4 1417 1646 0 1645 0 0 -1814 c0
-1142 4 -1871 10 -1968 63 -932 361 -1611 910 -2070 453 -381 989 -611 1630
-702 376 -54 1017 -45 1491 19 430 59 968 197 1359 350 229 90 584 258 610
290 8 9 -135 316 -523 1121 -552 1145 -610 1266 -614 1273 -2 3 -13 -5 -26
-16 -39 -36 -229 -159 -304 -196 -246 -124 -608 -124 -820 0 -189 110 -308
364 -374 798 -10 60 -14 443 -16 1498 l-4 1417 1021 0 1020 0 0 1383 0 1382
-1017 0 -1018 0 -3 1868 -2 1867 -1665 0 -1665 0 -2 -1867 -3 -1868 -1640 0
-1640 0 -3 1868 -2 1867 -1665 0 -1665 0 -2 -1867z"/>
<path d="M14310 18754 c-240 -20 -313 -27 -428 -44 -509 -75 -1022 -251 -1439
-496 -349 -204 -723 -503 -986 -789 -751 -815 -1191 -1866 -1277 -3050 -13
-180 -13 -680 0 -860 52 -713 220 -1343 521 -1950 387 -782 942 -1396 1658
-1835 672 -412 1442 -606 2325 -587 445 10 756 61 1106 183 363 126 820 386
1145 653 286 234 633 621 757 846 l28 50 0 -737 0 -738 1655 0 1655 0 0 4545
0 4545 -1670 0 -1670 0 -2 -660 -3 -659 -58 97 c-82 137 -218 304 -387 472
-266 265 -511 440 -871 621 -424 212 -795 321 -1277 375 -129 15 -675 27 -782
18z m1500 -2645 c493 -45 925 -248 1261 -595 326 -338 521 -752 591 -1259 16
-120 16 -504 -1 -625 -69 -498 -257 -905 -571 -1233 -120 -126 -210 -201 -345
-292 -599 -397 -1463 -435 -2135 -94 -610 310 -1025 900 -1126 1604 -21 146
-24 487 -6 620 71 513 272 925 618 1271 450 449 1059 663 1714 603z"/>
<path d="M39215 18749 c-1349 -80 -2427 -539 -3255 -1385 -689 -704 -1104
-1626 -1226 -2724 -21 -197 -30 -771 -15 -1011 77 -1207 432 -2121 1133 -2916
751 -851 1925 -1399 3293 -1538 261 -26 470 -35 820 -35 889 0 1584 72 2198
226 686 172 1153 381 1597 715 130 98 310 255 310 271 0 9 -1230 1976 -1282
2051 l-20 28 -57 -53 c-256 -237 -728 -487 -1174 -622 -429 -130 -784 -184
-1277 -193 -423 -8 -705 19 -998 97 -767 205 -1277 739 -1377 1443 -8 56 -15
110 -15 120 0 16 163 17 3289 17 2440 0 3292 3 3297 11 17 28 25 498 15 854
-18 620 -72 1044 -191 1501 -260 993 -810 1800 -1585 2326 -717 488 -1584 755
-2650 818 -192 11 -635 11 -830 -1z m810 -2254 c340 -52 600 -181 836 -415
120 -118 200 -231 280 -395 104 -214 162 -416 176 -612 l6 -83 -1692 0 -1691
0 0 28 c0 48 27 196 54 295 54 196 153 402 271 558 132 176 361 367 565 469
167 84 412 150 632 169 137 13 439 5 563 -14z"/>
<path d="M50825 18749 c-437 -36 -840 -134 -1225 -299 -450 -192 -784 -411
-1075 -704 -179 -180 -312 -362 -376 -516 -12 -30 -26 -59 -31 -65 -4 -5 -8
291 -8 658 l0 667 -1680 0 -1680 0 0 -4545 0 -4545 1680 0 1679 0 4 2558 c3
2786 -1 2588 57 2856 104 478 414 941 815 1215 329 225 663 330 1052 331 439
0 781 -115 1085 -367 267 -221 455 -554 537 -950 59 -286 55 -80 58 -2985 l3
-2658 1685 0 1685 0 -3 3008 c-4 3278 1 3033 -57 3392 -73 447 -221 866 -427
1205 -230 378 -613 780 -988 1038 -518 355 -1249 612 -1976 692 -171 19 -655
28 -814 14z"/>
<path d="M68573 18493 l-1683 -3 0 -4545 0 -4545 1685 0 1685 0 0 4550 c0
2503 -1 4549 -2 4548 -2 -2 -760 -4 -1685 -5z"/>
</g>
</svg>
