<?xml version="1.0" standalone="no"?>
<!DOCTYPE svg PUBLIC "-//W3C//DTD SVG 20010904//EN"
 "http://www.w3.org/TR/2001/REC-SVG-20010904/DTD/svg10.dtd">
<svg version="1.0" xmlns="http://www.w3.org/2000/svg"
 width="9827.000000pt" height="9827.000000pt" viewBox="0 0 9827.000000 9827.000000"
 preserveAspectRatio="xMidYMid meet">

<g transform="translate(0.000000,9827.000000) scale(0.100000,-0.100000)"
fill="#000000" stroke="none">
<path d="M75690 59184 c-19 -2 -84 -9 -145 -15 -634 -61 -1314 -307 -1850
-670 -658 -445 -1174 -1125 -1414 -1862 -94 -290 -148 -563 -192 -977 -8 -70
-13 -564 -16 -1492 l-4 -1388 -752 -2 -752 -3 0 -1380 0 -1380 753 -3 752 -2
0 -3165 0 -3165 1680 0 1680 0 0 3165 0 3165 1125 0 1125 0 2 312 3 311 1452
-3476 1453 -3477 -1050 -2298 c-578 -1265 -1050 -2302 -1050 -2306 0 -3 756
-5 1681 -4 l1681 3 3115 6830 c1713 3757 3118 6840 3123 6853 l10 22 -1649 0
-1649 0 -27 -67 c-106 -264 -2405 -6046 -2416 -6075 -7 -21 -15 -38 -19 -38
-3 0 -498 1390 -1100 3088 l-1096 3087 -2357 3 -2358 2 4 1233 c3 1357 1 1302
67 1566 70 274 243 525 443 639 232 132 540 167 804 92 156 -45 328 -155 477
-306 37 -37 68 -65 70 -63 8 9 1276 2450 1276 2457 -1 11 -126 101 -240 171
-259 158 -626 348 -785 405 -266 95 -556 154 -945 192 -155 15 -822 28 -910
18z"/>
<path d="M62790 55193 l0 -3738 -24 56 c-70 172 -161 296 -360 494 -234 233
-475 404 -811 576 -488 250 -899 374 -1447 436 -219 25 -811 25 -1023 0 -781
-92 -1400 -331 -1979 -766 -695 -522 -1215 -1239 -1536 -2116 -431 -1178 -427
-2677 11 -3852 73 -196 147 -361 253 -568 220 -428 461 -760 801 -1101 728
-730 1561 -1109 2603 -1185 202 -14 673 -6 827 15 462 62 803 167 1234 379
606 297 1149 767 1428 1235 l58 96 3 -737 2 -737 1665 0 1665 0 0 7625 0 7625
-1685 0 -1685 0 0 -3737z m-1790 -4818 c703 -105 1270 -521 1575 -1157 158
-330 222 -654 212 -1063 -11 -436 -113 -792 -327 -1136 -292 -471 -776 -803
-1330 -913 -653 -130 -1292 15 -1770 401 -97 79 -260 247 -333 345 -215 288
-355 628 -412 998 -23 148 -30 448 -16 606 51 545 272 1021 637 1374 347 335
754 517 1264 564 88 8 397 -4 500 -19z"/>
<path d="M68400 58450 c-214 -26 -398 -79 -580 -166 -190 -91 -338 -195 -500
-350 -298 -286 -486 -617 -566 -998 -32 -150 -44 -465 -25 -623 52 -418 222
-768 526 -1082 341 -352 735 -536 1223 -571 504 -36 979 113 1351 425 173 145
350 349 454 522 254 422 321 972 180 1468 -113 395 -390 776 -753 1035 -238
170 -492 277 -775 326 -107 18 -428 27 -535 14z"/>
<path d="M22620 54645 l0 -1865 -775 0 -775 0 0 -1385 0 -1385 775 0 774 0 4
-1922 c3 -1416 7 -1948 16 -2018 54 -432 113 -685 225 -963 200 -497 496 -857
961 -1163 402 -265 837 -419 1390 -495 295 -41 896 -37 1300 7 518 57 1175
225 1623 416 180 76 474 221 491 242 10 12 -80 207 -559 1203 -315 653 -574
1190 -576 1192 -2 3 -14 -5 -27 -16 -33 -31 -234 -161 -297 -193 -132 -66
-263 -93 -445 -92 -264 1 -445 88 -564 272 -73 113 -140 313 -176 525 -32 192
-35 354 -35 1676 l0 1329 1645 0 1644 0 4 -1922 c3 -1416 7 -1948 16 -2018 54
-432 113 -685 225 -963 200 -497 496 -857 961 -1163 402 -265 837 -419 1390
-495 295 -41 896 -37 1300 7 518 57 1175 225 1623 416 180 76 474 221 491 242
10 12 -80 207 -559 1203 -315 653 -574 1190 -576 1192 -2 3 -14 -5 -27 -16
-33 -31 -234 -161 -297 -193 -132 -66 -263 -93 -445 -92 -264 1 -445 88 -564
272 -73 113 -140 313 -176 525 -32 192 -35 354 -35 1676 l0 1329 1020 0 1020
0 0 1385 0 1385 -1020 0 -1020 0 0 1865 0 1865 -1665 0 -1665 0 0 -1865 0
-1865 -1645 0 -1645 0 0 1865 0 1865 -1665 0 -1665 0 0 -1865z"/>
<path d="M14225 53029 c-878 -63 -1637 -358 -2315 -902 -907 -728 -1516 -1836
-1689 -3077 -52 -373 -70 -919 -42 -1265 47 -581 167 -1109 361 -1591 496
-1229 1455 -2169 2609 -2554 482 -161 959 -228 1536 -217 655 13 1116 132
1639 426 411 231 712 464 988 767 201 220 294 339 365 464 l43 75 0 -738 0
-737 1655 0 1655 0 0 4550 0 4550 -1670 0 -1670 0 -2 -662 -3 -663 -29 50
c-164 279 -460 597 -766 822 -199 147 -509 320 -775 433 -346 148 -741 238
-1180 270 -163 12 -537 11 -710 -1z m1705 -2655 c581 -87 1059 -393 1383 -884
180 -273 297 -589 343 -925 24 -177 24 -503 0 -678 -87 -636 -414 -1173 -917
-1504 -443 -290 -1027 -392 -1599 -277 -691 138 -1267 628 -1530 1300 -99 252
-143 506 -143 819 0 244 21 412 77 616 169 616 621 1136 1205 1387 201 86 402
137 641 162 117 12 413 4 540 -16z"/>
<path d="M39195 53030 c-1000 -68 -1798 -317 -2509 -785 -1121 -736 -1794
-1883 -1953 -3325 -25 -233 -26 -986 0 -1230 47 -451 125 -830 242 -1186 297
-896 880 -1667 1660 -2194 629 -425 1416 -710 2285 -829 364 -50 475 -56 1065
-56 646 0 957 17 1415 76 629 81 1271 257 1725 473 307 146 676 393 882 592
l72 69 -645 1025 c-355 564 -649 1032 -654 1040 -7 12 -17 7 -52 -26 -66 -63
-149 -128 -261 -202 -416 -278 -929 -473 -1484 -567 -295 -49 -432 -59 -823
-59 -384 0 -489 8 -725 55 -869 174 -1441 724 -1550 1489 -8 58 -15 111 -15
118 0 9 665 12 3294 12 l3293 0 7 43 c14 92 18 645 7 926 -35 912 -191 1610
-499 2236 -517 1052 -1386 1751 -2602 2095 -340 96 -679 156 -1100 195 -195
19 -880 28 -1075 15z m817 -2255 c323 -48 567 -160 800 -367 271 -239 472
-660 504 -1051 l7 -87 -1692 0 -1691 0 0 24 c0 61 43 264 78 372 91 274 224
490 419 674 286 272 610 411 1048 450 130 11 404 4 527 -15z"/>
<path d="M50815 53029 c-553 -42 -1123 -217 -1627 -500 -464 -260 -859 -640
-1027 -989 l-46 -95 -3 668 -2 667 -1680 0 -1680 0 0 -4550 0 -4550 1680 0
1679 0 4 2548 c3 2818 -1 2616 67 2899 142 588 563 1106 1096 1349 233 106
439 153 704 161 467 13 829 -103 1147 -371 313 -262 490 -624 569 -1161 17
-112 18 -298 21 -2772 l4 -2653 1689 0 1690 0 0 2798 c0 1653 -4 2882 -10
3004 -42 903 -266 1569 -714 2127 -407 507 -866 847 -1471 1089 -461 184 -935
294 -1424 332 -155 12 -504 11 -666 -1z"/>
<path d="M66890 48230 l0 -4550 1685 0 1685 0 0 4550 0 4550 -1685 0 -1685 0
0 -4550z"/>
</g>
</svg>
